<?xml version="1.0" encoding="UTF-8"?>
<svg id="Layer_1" data-name="Layer 1" xmlns="http://www.w3.org/2000/svg" viewBox="0 0 2567.2 484.95">
  <defs>
    <style>
      .cls-1 {
        fill: #fff;
        stroke-width: 0px;
      }
    </style>
  </defs>
  <g>
    <path class="cls-1" d="M1004.71,303.54l10.8-35.42h-123.93c-7.35,0-13.83,4.81-15.96,11.84l-33.94,111.95c-3.25,10.71,4.77,21.51,15.96,21.51h22.06c7.36,0,13.84-4.82,15.97-11.86l10.83-35.93h64.08c7.35,0,13.83-4.81,15.96-11.85l8.61-28.46h-76.46l3.05-9.97h67.02c7.34,0,13.81-4.79,15.95-11.81Z"/>
    <path class="cls-1" d="M1025.9,268.12l-44.05,145.31h56.93l43.91-145.31h-56.79Z"/>
    <path class="cls-1" d="M1228.69,325.88c12.47-41.14-6.51-57.76-47.65-57.76h-87.96l-44.05,145.31h56.93l10.25-33.8h29.23l6.79,33.8h55.68l-10.53-46.54c13.57-8.73,25.62-22.16,31.31-41ZM1171.48,326.43c-2.08,6.65-7.2,11.22-15.93,11.22h-26.59l6.78-22.58h26.74c8.59,0,11.08,4.57,9,11.36Z"/>
    <path class="cls-1" d="M1385.49,318.81c15.24-45.16-12.47-55.55-56.65-55.55-49.87,0-78.95,18.42-87.96,48.07-12.33,40.86,24.24,41.56,50.56,45.71l18.28,2.91c11.64,1.38,9.01,6.23,8.73,7.2-1.11,3.74-8.17,7.34-23.55,6.93-18.7-.14-23.83-4.43-21.61-11.77h-50.98c-14.13,40.17,5.13,55.82,59.15,55.96,52.64.28,82.56-15.1,92.81-48.62,13.02-43.08-30.89-41.42-59.01-46.27l-14.55-2.35c-8.17-1.11-6.37-5.68-6.09-6.79,1.11-3.46,6.09-7.06,19.67-7.06,15.93,0,21.33,4.29,20.5,11.64h50.7Z"/>
    <path class="cls-1" d="M1408.07,268.12l-14.27,47.24h50.84l-29.64,98.07h56.65l29.78-98.07h50.84l14.27-47.24h-158.46Z"/>
  </g>
  <g>
    <path class="cls-1" d="M995.84,71.56h-48.27c-5.14,0-9.68,3.37-11.17,8.29l-36.86,121.98c-2.26,7.49,3.34,15.04,11.17,15.04h32.43c5.14,0,9.67-3.36,11.16-8.28l27.78-91.47c1.4-4.61-2.05-9.27-6.87-9.27h-39.63l60.26-36.29Z"/>
    <path class="cls-1" d="M1111.78,71.56l-19.95,65.66h-4.98l-15.52-65.66h-65.1l-44.05,145.31h55.41l19.95-65.8h5.12l16.9,65.8h63.58l44.05-145.31h-55.41Z"/>
    <path class="cls-1" d="M1176.61,71.56l-14.27,47.24h50.84l-29.78,98.07h56.79l29.78-98.07h50.84l14.27-47.24h-158.46Z"/>
    <path class="cls-1" d="M1480.1,129.32c12.6-41.14-6.51-57.76-47.65-57.76h-87.82l-44.05,145.31h56.93l10.11-33.8h29.36l6.65,33.8h55.68l-10.39-46.54c13.44-8.73,25.49-22.16,31.17-41ZM1422.89,129.87c-2.08,6.65-7.2,11.22-15.79,11.22h-26.73l6.93-22.58h26.59c8.59,0,11.08,4.57,9,11.36Z"/>
    <path class="cls-1" d="M1590.09,66.71c-51.67,0-93.22,30.2-107.49,77.43-14.26,47.1,8.87,77.57,60.53,77.57s93.08-30.47,107.35-77.57c14.41-47.23-8.87-77.43-60.4-77.43ZM1594.1,144.14c-5.82,19.25-21.75,28.53-36.15,28.53s-24.65-9.28-18.84-28.53c5.96-19.39,21.61-28.53,36.15-28.53s24.8,9.14,18.84,28.53Z"/>
    <path class="cls-1" d="M1757.42,71.56h-77.16l-43.91,145.31h77.16c60.95,0,90.59-30.75,103.2-72.72,12.88-42.11,1.8-72.58-59.29-72.58ZM1759.63,144.14c-5.96,19.95-19.25,25.07-31.58,25.07h-20.23l15.24-50.28h20.22c12.33,0,22.58,4.99,16.34,25.21Z"/>
    <path class="cls-1" d="M1948.16,71.56l-23.96,78.68c-4.29,14.54-13.3,23.83-29.09,23.83s-18.7-9.28-14.27-23.83l23.83-78.68h-57.21l-24.24,80.06c-14.82,48.62,4.02,70.09,57.35,70.09s85.33-21.47,100.15-70.64l24.11-79.51h-56.66Z"/>
    <path class="cls-1" d="M2155.8,136.52c13.02-53.47-20.78-69.81-58.73-69.81-50.15,0-92.12,30.2-106.52,77.43-14.27,47.1,9.42,77.57,59.56,77.57,38.23,0,81.72-16.62,101.25-70.37h-53.88c-7.06,14.41-18.29,21.33-32.55,21.33s-23.27-10.53-17.73-28.53c5.4-18.01,20.5-28.53,35.05-28.53s21.33,6.79,19.67,20.92h53.89Z"/>
    <path class="cls-1" d="M2183.36,71.56l-44.05,145.31h56.93l44.05-145.31h-56.93Z"/>
    <path class="cls-1" d="M2356.09,71.56l-19.95,65.66h-4.99l-15.51-65.66h-65.11l-43.91,145.31h55.27l19.95-65.8h5.12l17.04,65.8h63.44l44.05-145.31h-55.41Z"/>
    <path class="cls-1" d="M2492.26,115.61c11.91,0,17.04,6.37,17.31,9.7h56.37c8.04-40.86-23.96-58.59-60.25-58.59-52.5,0-94.19,30.2-108.46,77.43-14.27,47.1,11.22,77.57,56.24,77.57,24.52,0,45.02-9,59.15-21.47h.97l-4.16,16.62h28.4l25.07-82.7h-79.79l-7.89,25.9h25.07c-9.01,13.3-24.66,12.6-27.29,12.6-15.37,0-24.65-10.53-19.25-28.53,5.54-18.01,20.64-28.53,38.51-28.53Z"/>
  </g>
  <path class="cls-1" d="M146.73,0L0,484.95h670.45L817.15,0H146.73ZM273.61,158.41c10.24,0,17.73,10.12,14.68,19.8l-66.49,215.12c-3.73,12.07-14.68,20.09-27.43,20.09h-75.34c-14.41,0-24.94-14.12-20.8-27.7L189.25,91.5c3.73-11.92,14.68-19.94,27.28-19.94h102.23l-133.39,86.85h88.24ZM671.79,158.43h-145.19l-12.56,40.52h166.38l-20.68,66.93c-3.68,12-14.68,20.04-27.38,20.04h-145.17l-31.99,103.45c-4.46,14.39-17.65,24.02-32.87,24.02h-73.75c-14.31,0-24.89-14.12-20.7-27.65l90.99-294.19c3.71-12,14.7-20.02,27.38-20.02h273.59l-20.68,66.85c-3.71,12-14.7,20.04-27.38,20.04Z"/>
</svg>