<?xml version="1.0" encoding="UTF-8"?>
<svg id="Layer_1" data-name="Layer 1" xmlns="http://www.w3.org/2000/svg" viewBox="0 0 1146.4 1146.4">
  <defs>
    <style>
      .cls-1 {
        fill: #030712;
      }

      .cls-1, .cls-2 {
        stroke-width: 0px;
      }

      .cls-2 {
        fill: #fff;
      }
    </style>
  </defs>
  <rect class="cls-1" x="-36" y="-36" width="1218.4" height="1218.4"/>
  <path class="cls-2" d="M295.6,316.14l-155.55,514.12h710.77l155.53-514.12H295.6ZM430.12,484.08c10.86,0,18.79,10.73,15.56,20.99l-70.49,228.06c-3.95,12.79-15.56,21.3-29.08,21.3h-79.87c-15.28,0-26.44-14.97-22.05-29.36l96.49-311.91c3.95-12.64,15.56-21.14,28.92-21.14h108.38l-141.42,92.07h93.54ZM852.24,484.1h-153.93l-13.31,42.96h176.39l-21.92,70.95c-3.9,12.72-15.56,21.25-29.03,21.25h-153.9l-33.91,109.67c-4.73,15.25-18.71,25.46-34.84,25.46h-78.19c-15.17,0-26.39-14.97-21.95-29.31l96.47-311.88c3.93-12.72,15.59-21.22,29.03-21.22h290.04l-21.92,70.88c-3.93,12.72-15.59,21.25-29.03,21.25Z"/>
</svg>