<?xml version="1.0" encoding="UTF-8"?>
<svg id="Layer_1" data-name="Layer 1" xmlns="http://www.w3.org/2000/svg" viewBox="0 0 833.08 457.54">
  <defs>
    <style>
      .cls-1 {
        fill: #fff;
        stroke-width: 0px;
      }
    </style>
  </defs>
  <path class="cls-1" d="M235.91,116.27h-118.09L296.34.04h-136.8c-16.87,0-31.51,10.75-36.52,26.69L1.23,420.47c-5.56,18.17,8.53,37.08,27.81,37.08h100.84c17.06,0,31.7-10.75,36.7-26.88l88.98-287.89c4.08-12.98-5.93-26.51-19.65-26.51Z"/>
  <path class="cls-1" d="M574.49,116.29l-16.82,54.23h222.66l-27.65,89.58c-4.95,16.05-19.67,26.81-36.65,26.81h-194.29l-42.81,138.46c-5.95,19.25-23.6,32.15-43.97,32.15h-98.71c-19.17,0-33.32-18.9-27.72-37.01L430.33,26.79c4.96-16.04,19.67-26.79,36.64-26.79h366.12l-27.65,89.49c-4.96,16.04-19.67,26.8-36.64,26.8h-194.3Z"/>
</svg>