<?xml version="1.0" encoding="UTF-8"?>
<svg id="Layer_1" data-name="Layer 1" xmlns="http://www.w3.org/2000/svg" viewBox="0 0 1146.4 1146.4">
  <defs>
    <style>
      .cls-1 {
        fill: #030712;
      }

      .cls-1, .cls-2 {
        stroke-width: 0px;
      }

      .cls-2 {
        fill: #fff;
      }
    </style>
  </defs>
  <rect class="cls-2" x="-36" y="-36" width="1218.4" height="1218.4"/>
  <g>
    <path class="cls-1" d="M402.53,466.9h-111.58l168.68-109.82h-129.26c-15.94,0-29.78,10.16-34.51,25.22l-115.08,372.04c-5.26,17.17,8.06,35.03,26.27,35.03h95.29c16.12,0,29.95-10.16,34.68-25.4l84.08-272.02c3.85-12.26-5.61-25.05-18.56-25.05Z"/>
    <path class="cls-1" d="M722.44,466.92l-15.89,51.24h210.39l-26.13,84.64c-4.68,15.16-18.58,25.33-34.63,25.33h-183.59l-40.45,130.83c-5.62,18.19-22.3,30.38-41.54,30.38h-93.27c-18.11,0-31.48-17.85-26.19-34.97l115.08-372.02c4.69-15.15,18.58-25.31,34.62-25.31h345.94l-26.13,84.56c-4.68,15.16-18.58,25.32-34.62,25.32h-183.59Z"/>
  </g>
</svg>