<?xml version="1.0" encoding="UTF-8"?>
<svg id="Layer_1" data-name="Layer 1" xmlns="http://www.w3.org/2000/svg" viewBox="0 0 916.83 544.11">
  <defs>
    <style>
      .cls-1 {
        fill: #030712;
        stroke-width: 0px;
      }
    </style>
  </defs>
  <path class="cls-1" d="M164.63,0L0,544.11h752.23L916.83,0H164.63ZM306.99,177.73c11.49,0,19.89,11.35,16.47,22.21l-74.6,241.36c-4.19,13.54-16.47,22.54-30.78,22.54h-84.53c-16.17,0-27.98-15.84-23.33-31.08L212.34,102.67c4.19-13.38,16.47-22.38,30.61-22.38h114.7l-149.66,97.44h99ZM753.73,177.76h-162.9l-14.09,45.47h186.68l-23.2,75.09c-4.13,13.46-16.47,22.49-30.72,22.49h-162.88l-35.89,116.07c-5.01,16.14-19.81,26.95-36.88,26.95h-82.75c-16.06,0-27.93-15.84-23.23-31.02l102.09-330.07c4.16-13.46,16.5-22.46,30.72-22.46h306.96l-23.2,75.01c-4.16,13.46-16.5,22.49-30.72,22.49Z"/>
</svg>