<?xml version="1.0" encoding="UTF-8"?>
<svg id="Layer_1" data-name="Layer 1" xmlns="http://www.w3.org/2000/svg" viewBox="0 0 2558.31 521.02">
  <defs>
    <style>
      .cls-1 {
        fill: #030712;
        stroke-width: 0px;
      }
    </style>
  </defs>
  <g>
    <path class="cls-1" d="M242.68,350.98l16.01-52.5H75.03c-10.89,0-20.49,7.12-23.65,17.54L1.08,481.95c-4.81,15.87,7.07,31.88,23.65,31.88h32.7c10.9,0,20.52-7.14,23.66-17.58l16.05-53.24h94.97c10.89,0,20.5-7.13,23.66-17.56l12.75-42.18h-113.32l4.52-14.78h99.33c10.87,0,20.47-7.1,23.64-17.5Z"/>
    <path class="cls-1" d="M274.09,298.48l-65.28,215.34h84.37l65.08-215.34h-84.17Z"/>
    <path class="cls-1" d="M574.63,384.09c18.47-60.97-9.65-85.6-70.62-85.6h-130.35l-65.28,215.34h84.37l15.19-50.09h43.32l10.06,50.09h82.53l-15.6-68.98c20.12-12.93,37.97-32.85,46.39-60.76ZM489.85,384.91c-3.08,9.85-10.68,16.63-23.61,16.63h-39.41l10.05-33.46h39.62c12.73,0,16.42,6.77,13.34,16.83Z"/>
    <path class="cls-1" d="M807.01,373.62c22.58-66.92-18.47-82.32-83.96-82.32-73.9,0-117.01,27.3-130.36,71.23-18.27,60.56,35.92,61.59,74.93,67.74l27.09,4.31c17.25,2.05,13.35,9.24,12.94,10.68-1.64,5.54-12.11,10.88-34.9,10.26-27.72-.21-35.31-6.57-32.03-17.45h-75.55c-20.94,59.53,7.6,82.73,87.66,82.94,78.01.41,122.35-22.38,137.55-72.06,19.3-63.84-45.78-61.38-87.45-68.57l-21.56-3.49c-12.11-1.64-9.44-8.42-9.03-10.06,1.64-5.13,9.03-10.47,29.15-10.47,23.61,0,31.61,6.36,30.38,17.24h75.13Z"/>
    <path class="cls-1" d="M840.48,298.48l-21.15,70h75.34l-43.93,145.34h83.96l44.14-145.34h75.34l21.15-70h-234.85Z"/>
  </g>
  <g>
    <path class="cls-1" d="M229.55,7.18h-71.54c-7.62,0-14.34,4.99-16.55,12.29l-54.63,180.77c-3.35,11.1,4.95,22.29,16.55,22.29h48.07c7.61,0,14.33-4.98,16.54-12.26l41.16-135.56c2.08-6.84-3.04-13.74-10.19-13.74h-58.72L229.55,7.18Z"/>
    <path class="cls-1" d="M401.37,7.18l-29.56,97.31h-7.39l-22.99-97.31h-96.48l-65.28,215.34h82.11l29.56-97.51h7.59l25.04,97.51h94.23L483.48,7.18h-82.11Z"/>
    <path class="cls-1" d="M497.45,7.18l-21.15,70h75.34l-44.13,145.34h84.16l44.14-145.34h75.34l21.15-70h-234.85Z"/>
    <path class="cls-1" d="M947.23,92.79c18.68-60.97-9.65-85.6-70.62-85.6h-130.15l-65.28,215.34h84.37l14.99-50.09h43.52l9.85,50.09h82.53l-15.4-68.98c19.91-12.93,37.77-32.85,46.19-60.76ZM862.44,93.61c-3.08,9.85-10.67,16.63-23.4,16.63h-39.62l10.26-33.46h39.41c12.73,0,16.42,6.77,13.34,16.83Z"/>
    <path class="cls-1" d="M1110.22,0c-76.57,0-138.16,44.75-159.3,114.75-21.14,69.8,13.14,114.96,89.71,114.96s137.95-45.16,159.1-114.96c21.35-70-13.14-114.75-89.51-114.75ZM1116.17,114.75c-8.62,28.53-32.23,42.29-53.58,42.29s-36.54-13.75-27.92-42.29c8.83-28.74,32.03-42.29,53.58-42.29s36.75,13.55,27.92,42.29Z"/>
    <path class="cls-1" d="M1358.21,7.18h-114.35l-65.07,215.34h114.35c90.32,0,134.25-45.57,152.94-107.77,19.09-62.41,2.67-107.57-87.86-107.57ZM1361.49,114.75c-8.83,29.56-28.53,37.16-46.8,37.16h-29.98l22.58-74.52h29.97c18.27,0,33.46,7.39,24.22,37.36Z"/>
    <path class="cls-1" d="M1640.89,7.18l-35.51,116.6c-6.37,21.55-19.71,35.31-43.11,35.31s-27.71-13.76-21.15-35.31l35.31-116.6h-84.79l-35.92,118.66c-21.97,72.06,5.95,103.87,84.99,103.87s126.46-31.82,148.42-104.7l35.72-117.83h-83.96Z"/>
    <path class="cls-1" d="M1948.61,103.46c19.3-79.24-30.79-103.46-87.04-103.46-74.32,0-136.52,44.75-157.86,114.75-21.15,69.8,13.96,114.96,88.27,114.96,56.65,0,121.12-24.63,150.06-104.29h-79.85c-10.47,21.35-27.1,31.61-48.24,31.61s-34.49-15.6-26.28-42.29c8.01-26.69,30.38-42.29,51.94-42.29s31.61,10.06,29.15,31h79.86Z"/>
    <path class="cls-1" d="M1989.46,7.18l-65.28,215.34h84.37l65.28-215.34h-84.37Z"/>
    <path class="cls-1" d="M2245.45,7.18l-29.56,97.31h-7.39l-22.99-97.31h-96.49l-65.07,215.34h81.91l29.56-97.51h7.59l25.25,97.51h94.02l65.28-215.34h-82.11Z"/>
    <path class="cls-1" d="M2447.25,72.47c17.65,0,25.25,9.44,25.66,14.37h83.55c11.91-60.56-35.51-86.84-89.3-86.84-77.8,0-139.6,44.75-160.74,114.75-21.15,69.8,16.63,114.96,83.35,114.96,36.34,0,66.72-13.34,87.66-31.82h1.44l-6.16,24.63h42.08l37.15-122.55h-118.24l-11.7,38.39h37.16c-13.35,19.71-36.55,18.68-40.45,18.68-22.78,0-36.54-15.6-28.53-42.29,8.21-26.69,30.59-42.29,57.07-42.29Z"/>
  </g>
</svg>